<svg viewBox="0 0 282 236" fill="none" xmlns="http://www.w3.org/2000/svg">
<g opacity="0.5">
<mask id="mask0" mask-type="alpha" maskUnits="userSpaceOnUse" x="0" y="0" width="315" height="236">
<path d="M314.44 0H0V235.536H314.44V0Z" fill="white"/>
</mask>
<g mask="url(#mask0)">
<path d="M88.4364 130.133C115.462 130.133 137.371 108.252 137.371 81.2597C137.371 54.2676 115.462 32.3861 88.4364 32.3861C61.4105 32.3861 39.5017 54.2676 39.5017 81.2597C39.5017 108.252 61.4105 130.133 88.4364 130.133Z" fill="#323232"/>
<path d="M287.197 23.5077L187.169 81.386L195.066 94.9992L295.094 37.1208L287.197 23.5077Z" fill="#5C5C5C"/>
<path fill-rule="evenodd" clip-rule="evenodd" d="M171.609 175.932L131.144 126.18L121.391 132.649L161.882 183.676L171.609 175.932Z" fill="#5C5C5C"/>
<path fill-rule="evenodd" clip-rule="evenodd" d="M33.6495 193.001L81.4425 158.127L77.0523 151.818L28.608 183.109L33.6495 193.001Z" fill="#6D6D6D"/>
<path d="M138.094 189.222L120.259 162.716L116.146 165.476L133.982 191.982L138.094 189.222Z" fill="#606060"/>
<path fill-rule="evenodd" clip-rule="evenodd" d="M162.449 135.826L143.859 113.217L135.943 117.768L154.058 142.48L162.449 135.826Z" fill="#767676"/>
<path fill-rule="evenodd" clip-rule="evenodd" d="M293.322 -33.8218L100.524 100.87L110.029 113.275L309.912 -13.2428L293.322 -33.8218Z" fill="#595959"/>
<path fill-rule="evenodd" clip-rule="evenodd" d="M112.682 115.684L179.398 79.2447L184.203 87.8875L118.283 123.969L112.682 115.684Z" fill="#454545"/>
<path d="M79.6243 169.389L22.4038 217.414L28.7718 224.982L85.9923 176.958L79.6243 169.389Z" fill="#6D6D6D"/>
<path fill-rule="evenodd" clip-rule="evenodd" d="M62.072 178.515L85.9277 159.487L90.4621 164.471L66.6065 183.499L62.072 178.515Z" fill="#454545"/>
<path d="M219.388 88.8394L285.559 52.5566L288.102 57.5243L221.932 93.8071L219.388 88.8394Z" fill="#7A7A7A"/>
<path fill-rule="evenodd" clip-rule="evenodd" d="M225.026 47.3209L288.952 8.8285L291.836 13.6069L227.911 52.0992L225.026 47.3209Z" fill="#323232"/>
<path d="M275.407 70.2811L208.935 104.233L209.578 105.489L276.05 71.5367L275.407 70.2811Z" fill="#3D3D3D"/>
<path d="M162.81 189.278L46.9441 43.5741L43.6528 46.1848L159.519 191.889L162.81 189.278Z" fill="#7A7A7A"/>
<path fill-rule="evenodd" clip-rule="evenodd" d="M122.76 151.74L44.8601 57.3859L32.6636 65.3152L109.321 161.816L122.76 151.74Z" fill="#3D3D3D"/>
<path d="M196.799 149.192C200.942 148.199 203.5 144.057 202.511 139.941C201.523 135.825 197.362 133.293 193.219 134.286C189.075 135.279 186.518 139.42 187.506 143.536C188.495 147.652 192.655 150.184 196.799 149.192Z" fill="#3D3D3D"/>
<path d="M36.8588 147.847C44.3207 146.06 48.9266 138.602 47.1464 131.189C45.3662 123.777 37.874 119.217 30.4121 121.005C22.9502 122.792 18.3443 130.25 20.1245 137.663C21.9047 145.075 29.3969 149.635 36.8588 147.847Z" fill="#6D6D6D"/>
<path d="M96.8993 88.8504C100.146 88.0727 102.15 84.828 101.375 81.6031C100.601 78.3782 97.341 76.3944 94.0946 77.1721C90.8483 77.9499 88.8444 81.1946 89.6189 84.4195C90.3934 87.6443 93.653 89.6281 96.8993 88.8504Z" fill="#5C5C5C"/>
<path d="M64.0674 147.574C67.298 146.8 69.2921 143.571 68.5214 140.362C67.7506 137.153 64.5069 135.179 61.2763 135.953C58.0457 136.727 56.0516 139.956 56.8223 143.165C57.593 146.374 60.8368 148.348 64.0674 147.574Z" fill="#323232"/>
<path d="M99.8597 95.2277L154.849 57.306L154.383 56.6318L99.3936 94.5535L99.8597 95.2277Z" fill="#7A7A7A"/>
<path d="M211.331 178.924L239.771 212.226L240.818 211.334L212.378 178.032L211.331 178.924Z" fill="#7A7A7A"/>
<path d="M32.3029 13.8601L60.7585 49.3495L61.3989 48.8373L32.9433 13.3479L32.3029 13.8601Z" fill="#7A7A7A"/>
<path d="M51.5124 185.642L15.3625 214.836L15.8784 215.473L52.0282 186.279L51.5124 185.642Z" fill="#7A7A7A"/>
<path fill-rule="evenodd" clip-rule="evenodd" d="M236.733 150.077L229.108 141.317L229.79 140.725L237.415 149.485L246.185 141.87L246.778 142.551L238.007 150.166L245.632 158.926L244.95 159.518L237.325 150.758L228.555 158.373L227.962 157.692L236.733 150.077Z" fill="#5C5C5C"/>
<path fill-rule="evenodd" clip-rule="evenodd" d="M33.4017 133.571L29.4754 129.06L29.8265 128.755L33.7528 133.266L38.2695 129.345L38.5747 129.696L34.058 133.617L37.9843 138.128L37.6332 138.433L33.7069 133.922L29.1902 137.843L28.885 137.492L33.4017 133.571Z" fill="#5C5C5C"/>
</g>
</g>
</svg>
